<?xml version="1.0" encoding="UTF-8" standalone="no"?>
<svg
   xmlns:dc="http://purl.org/dc/elements/1.1/"
   xmlns:cc="http://creativecommons.org/ns#"
   xmlns:rdf="http://www.w3.org/1999/02/22-rdf-syntax-ns#"
   xmlns:svg="http://www.w3.org/2000/svg"
   xmlns="http://www.w3.org/2000/svg"
   xmlns:sodipodi="http://sodipodi.sourceforge.net/DTD/sodipodi-0.dtd"
   xmlns:inkscape="http://www.inkscape.org/namespaces/inkscape"
   fill="#000000"
   height="24"
   viewBox="0 0 24 24"
   width="24"
   id="svg2"
   version="1.1"
   inkscape:version="0.91 r13725"
   sodipodi:docname="ic_event_do_not_disturb_black_24px.svg">
  <metadata
     id="metadata12">
    <rdf:RDF>
      <cc:Work
         rdf:about="">
        <dc:format>image/svg+xml</dc:format>
        <dc:type
           rdf:resource="http://purl.org/dc/dcmitype/StillImage" />
        <dc:title></dc:title>
      </cc:Work>
    </rdf:RDF>
  </metadata>
  <defs
     id="defs10" />
  <sodipodi:namedview
     pagecolor="#ffffff"
     bordercolor="#666666"
     borderopacity="1"
     objecttolerance="10"
     gridtolerance="10"
     guidetolerance="10"
     inkscape:pageopacity="0"
     inkscape:pageshadow="2"
     inkscape:window-width="1871"
     inkscape:window-height="1176"
     id="namedview8"
     showgrid="false"
     inkscape:zoom="27.812867"
     inkscape:cx="10.053713"
     inkscape:cy="9.2440643"
     inkscape:window-x="49"
     inkscape:window-y="744"
     inkscape:window-maximized="1"
     inkscape:current-layer="svg2"
     inkscape:showpageshadow="false"
     showborder="true" />
  <rect
     style="fill:#ffffff;fill-opacity:1;fill-rule:nonzero;stroke:#000000;stroke-width:0.06;stroke-linecap:butt;stroke-linejoin:miter;stroke-miterlimit:4;stroke-dasharray:none;stroke-dashoffset:0;stroke-opacity:1"
     id="rect4271"
     width="14.957107"
     height="11.900964"
     x="4.4943233"
     y="7.4249377" />
  <path
     d="M0 0h24v24H0z"
     fill="none"
     id="path4" />
  <path
     d="M 19,3 18,3 18,1 16,1 16,3 8,3 8,1 6,1 6,3 5,3 C 3.89,3 3.01,3.9 3.01,5 L 3,19 c 0,1.1 0.89,2 2,2 l 14,0 c 1.1,0 2,-0.9 2,-2 L 21,5 C 21,3.9 20.1,3 19,3 Z M 19,19 5,19 5,8 19,8 Z"
     id="path6"
     inkscape:connector-curvature="0"
     sodipodi:nodetypes="sccccccccsccsssssccccc" />
  <path
     inkscape:connector-curvature="0"
     style="fill:none"
     d="m 7.1909172,8.700264 9.6181658,0 0,9.618168 -9.6181658,0 0,-9.618168 z"
     id="path4235" />
  <path
     inkscape:connector-curvature="0"
     d="m 12,9.5017779 c -2.2121777,0 -4.0075688,1.7953921 -4.0075688,4.0075701 0,2.212178 1.7953911,4.00757 4.0075688,4.00757 2.212178,0 4.007569,-1.795392 4.007569,-4.00757 0,-2.212178 -1.795391,-4.0075701 -4.007569,-4.0075701 z m 2.003784,4.4083271 -4.0075682,0 0,-0.801514 4.0075682,0 0,0.801514 z"
     id="path4237" />
</svg>
